<?xml version="1.0" encoding="UTF-8"?>
<svg xmlns="http://www.w3.org/2000/svg" xmlns:xlink="http://www.w3.org/1999/xlink" fill-opacity="1" color-rendering="auto" color-interpolation="auto" stroke="black" text-rendering="auto" stroke-linecap="square" width="1449" stroke-miterlimit="10" stroke-opacity="1" shape-rendering="auto" fill="black" stroke-dasharray="none" font-weight="normal" stroke-width="1" height="710" font-family="'Dialog'" font-style="normal" stroke-linejoin="miter" font-size="12" stroke-dashoffset="0" image-rendering="auto">
  <!--Generated by ySVG-->
  <defs id="genericDefs"/>
  <g>
    <defs id="defs1">
      <clipPath clipPathUnits="userSpaceOnUse" id="clipPath1">
        <path d="M0 0 L1449 0 L1449 710 L0 710 L0 0 Z"/>
      </clipPath>
      <clipPath clipPathUnits="userSpaceOnUse" id="clipPath2">
        <path d="M-15 -15 L1434 -15 L1434 695 L-15 695 L-15 -15 Z"/>
      </clipPath>
    </defs>
    <g fill="white" transform="translate(15,15)" stroke="white">
      <rect x="-15" width="1449" height="710" y="-15" clip-path="url(#clipPath2)" stroke="none"/>
    </g>
    <g fill="rgb(255,102,102)" transform="matrix(1,0,0,1,15,15)" stroke="rgb(255,102,102)">
      <rect x="840.8097" y="104.1944" clip-path="url(#clipPath2)" width="154.8322" rx="4" ry="4" height="148" stroke="none"/>
      <text x="900.4661" y="175.6632" clip-path="url(#clipPath2)" fill="black" font-family="sans-serif" stroke="none" xml:space="preserve">server</text>
      <text x="870.0442" y="189.796" clip-path="url(#clipPath2)" fill="black" font-family="sans-serif" stroke="none" xml:space="preserve">(without project)</text>
    </g>
    <g stroke-linecap="butt" transform="matrix(1,0,0,1,15,15)" stroke-miterlimit="1.45">
      <rect x="840.8097" y="104.1944" clip-path="url(#clipPath2)" fill="none" width="154.8322" rx="4" ry="4" height="148"/>
    </g>
    <g fill="rgb(204,204,255)" transform="matrix(1,0,0,1,15,15)" stroke="rgb(204,204,255)">
      <rect x="981.261" width="120" height="80" y="509.0165" clip-path="url(#clipPath2)" stroke="none"/>
      <text x="995.9124" y="553.5517" clip-path="url(#clipPath2)" fill="black" font-family="sans-serif" stroke="none" xml:space="preserve">platform plugin</text>
    </g>
    <g stroke-linecap="butt" transform="matrix(1,0,0,1,15,15)" stroke-miterlimit="1.45">
      <rect fill="none" x="981.261" width="120" height="80" y="509.0165" clip-path="url(#clipPath2)"/>
    </g>
    <g fill="rgb(204,204,255)" transform="matrix(1,0,0,1,15,15)" stroke="rgb(204,204,255)">
      <rect x="992.3393" width="120" height="80" y="357.0887" clip-path="url(#clipPath2)" stroke="none"/>
      <text x="1000.434" y="401.6238" clip-path="url(#clipPath2)" fill="black" font-family="sans-serif" stroke="none" xml:space="preserve">executable plugin</text>
    </g>
    <g stroke-linecap="butt" transform="matrix(1,0,0,1,15,15)" stroke-miterlimit="1.45">
      <rect fill="none" x="992.3393" width="120" height="80" y="357.0887" clip-path="url(#clipPath2)"/>
    </g>
    <g fill="rgb(153,255,153)" transform="matrix(1,0,0,1,15,15)" stroke="rgb(153,255,153)">
      <rect x="1254.5402" y="126.3333" clip-path="url(#clipPath2)" width="164" rx="4" ry="4" height="153" stroke="none"/>
      <text x="1316.4718" y="207.3685" clip-path="url(#clipPath2)" fill="black" font-family="sans-serif" stroke="none" xml:space="preserve">worker</text>
    </g>
    <g stroke-linecap="butt" transform="matrix(1,0,0,1,15,15)" stroke-miterlimit="1.45">
      <rect x="1254.5402" y="126.3333" clip-path="url(#clipPath2)" fill="none" width="164" rx="4" ry="4" height="153"/>
    </g>
    <g fill="rgb(153,255,153)" transform="matrix(1,0,0,1,15,15)" stroke="rgb(153,255,153)">
      <rect x="0" y="133.4735" clip-path="url(#clipPath2)" width="177" rx="4" ry="4" height="153" stroke="none"/>
      <text x="27.9668" y="207.4422" clip-path="url(#clipPath2)" fill="black" font-family="sans-serif" stroke="none" xml:space="preserve">command-line client</text>
      <text x="65.1035" y="221.5751" clip-path="url(#clipPath2)" fill="black" font-family="sans-serif" stroke="none" xml:space="preserve">browser</text>
    </g>
    <g stroke-linecap="butt" transform="matrix(1,0,0,1,15,15)" stroke-miterlimit="1.45">
      <rect x="0" y="133.4735" clip-path="url(#clipPath2)" fill="none" width="177" rx="4" ry="4" height="153"/>
    </g>
    <g fill="rgb(255,204,0)" transform="matrix(1,0,0,1,15,15)" stroke="rgb(255,204,0)">
      <path d="M267.3906 346.6389 L273.2031 336.8889 L319.7031 336.8889 L325.5156 346.6389 L319.7031 356.3889 L273.2031 356.3889 Z" clip-path="url(#clipPath2)" fill-rule="evenodd" stroke="none"/>
      <text x="283.6885" y="351.174" clip-path="url(#clipPath2)" fill="black" font-family="sans-serif" stroke="none" xml:space="preserve">stop</text>
    </g>
    <g stroke-linecap="butt" transform="matrix(1,0,0,1,15,15)" stroke-miterlimit="1.45">
      <path fill="none" d="M267.3906 346.6389 L273.2031 336.8889 L319.7031 336.8889 L325.5156 346.6389 L319.7031 356.3889 L273.2031 356.3889 Z" fill-rule="evenodd" clip-path="url(#clipPath2)"/>
    </g>
    <g fill="rgb(255,204,0)" transform="matrix(1,0,0,1,15,15)" stroke="rgb(255,204,0)">
      <path d="M252.5469 304.5278 L261.3281 294.7778 L331.5781 294.7778 L340.3594 304.5278 L331.5781 314.2778 L261.3281 314.2778 Z" clip-path="url(#clipPath2)" fill-rule="evenodd" stroke="none"/>
      <text x="262.6768" y="309.0629" clip-path="url(#clipPath2)" fill="black" font-family="sans-serif" stroke="none" xml:space="preserve">run-project</text>
    </g>
    <g stroke-linecap="butt" transform="matrix(1,0,0,1,15,15)" stroke-miterlimit="1.45">
      <path fill="none" d="M252.5469 304.5278 L261.3281 294.7778 L331.5781 294.7778 L340.3594 304.5278 L331.5781 314.2778 L261.3281 314.2778 Z" fill-rule="evenodd" clip-path="url(#clipPath2)"/>
    </g>
    <g fill="rgb(255,204,0)" transform="matrix(1,0,0,1,15,15)" stroke="rgb(255,204,0)">
      <path d="M267.3906 388.75 L273.2031 379 L319.7031 379 L325.5156 388.75 L319.7031 398.5 L273.2031 398.5 Z" clip-path="url(#clipPath2)" fill-rule="evenodd" stroke="none"/>
      <text x="287.6816" y="393.2852" clip-path="url(#clipPath2)" fill="black" font-family="sans-serif" stroke="none" xml:space="preserve">list</text>
    </g>
    <g stroke-linecap="butt" transform="matrix(1,0,0,1,15,15)" stroke-miterlimit="1.45">
      <path fill="none" d="M267.3906 388.75 L273.2031 379 L319.7031 379 L325.5156 388.75 L319.7031 398.5 L273.2031 398.5 Z" fill-rule="evenodd" clip-path="url(#clipPath2)"/>
    </g>
    <g fill="rgb(255,204,0)" transform="matrix(1,0,0,1,15,15)" stroke="rgb(255,204,0)">
      <path d="M252.5469 262.4167 L261.3281 252.6667 L331.5781 252.6667 L340.3594 262.4167 L331.5781 272.1667 L261.3281 272.1667 Z" clip-path="url(#clipPath2)" fill-rule="evenodd" stroke="none"/>
      <text x="278.2891" y="266.9518" clip-path="url(#clipPath2)" fill="black" font-family="sans-serif" stroke="none" xml:space="preserve">config</text>
    </g>
    <g stroke-linecap="butt" transform="matrix(1,0,0,1,15,15)" stroke-miterlimit="1.45">
      <path fill="none" d="M252.5469 262.4167 L261.3281 252.6667 L331.5781 252.6667 L340.3594 262.4167 L331.5781 272.1667 L261.3281 272.1667 Z" fill-rule="evenodd" clip-path="url(#clipPath2)"/>
    </g>
    <g fill="rgb(255,204,0)" transform="matrix(1,0,0,1,15,15)" stroke="rgb(255,204,0)">
      <path d="M246.2969 220.3056 L256.3281 210.5556 L336.5781 210.5556 L346.6094 220.3056 L336.5781 230.0556 L256.3281 230.0556 Z" clip-path="url(#clipPath2)" fill-rule="evenodd" stroke="none"/>
      <text x="256.5391" y="224.8407" clip-path="url(#clipPath2)" fill="black" font-family="sans-serif" stroke="none" xml:space="preserve">config-values</text>
    </g>
    <g stroke-linecap="butt" transform="matrix(1,0,0,1,15,15)" stroke-miterlimit="1.45">
      <path fill="none" d="M246.2969 220.3056 L256.3281 210.5556 L336.5781 210.5556 L346.6094 220.3056 L336.5781 230.0556 L256.3281 230.0556 Z" fill-rule="evenodd" clip-path="url(#clipPath2)"/>
    </g>
    <g fill="rgb(255,204,0)" transform="matrix(1,0,0,1,15,15)" stroke="rgb(255,204,0)">
      <path d="M240.8281 178.1944 L251.9531 168.4444 L340.9531 168.4444 L352.0781 178.1944 L340.9531 187.9444 L251.9531 187.9444 Z" clip-path="url(#clipPath2)" fill-rule="evenodd" stroke="none"/>
      <text x="254.7959" y="182.7296" clip-path="url(#clipPath2)" fill="black" font-family="sans-serif" stroke="none" xml:space="preserve">delete-project</text>
    </g>
    <g stroke-linecap="butt" transform="matrix(1,0,0,1,15,15)" stroke-miterlimit="1.45">
      <path fill="none" d="M240.8281 178.1944 L251.9531 168.4444 L340.9531 168.4444 L352.0781 178.1944 L340.9531 187.9444 L251.9531 187.9444 Z" fill-rule="evenodd" clip-path="url(#clipPath2)"/>
    </g>
    <g fill="rgb(255,204,0)" transform="matrix(1,0,0,1,15,15)" stroke="rgb(255,204,0)">
      <path d="M240.8281 136.0833 L251.9531 126.3333 L340.9531 126.3333 L352.0781 136.0833 L340.9531 145.8333 L251.9531 145.8333 Z" clip-path="url(#clipPath2)" fill-rule="evenodd" stroke="none"/>
      <text x="259.6592" y="140.6185" clip-path="url(#clipPath2)" fill="black" font-family="sans-serif" stroke="none" xml:space="preserve">hold-project</text>
    </g>
    <g stroke-linecap="butt" transform="matrix(1,0,0,1,15,15)" stroke-miterlimit="1.45">
      <path fill="none" d="M240.8281 136.0833 L251.9531 126.3333 L340.9531 126.3333 L352.0781 136.0833 L340.9531 145.8333 L251.9531 145.8333 Z" fill-rule="evenodd" clip-path="url(#clipPath2)"/>
    </g>
    <g fill="rgb(255,204,0)" transform="matrix(1,0,0,1,15,15)" stroke="rgb(255,204,0)">
      <path d="M240.8281 93.9722 L251.9531 84.2222 L340.9531 84.2222 L352.0781 93.9722 L340.9531 103.7222 L251.9531 103.7222 Z" clip-path="url(#clipPath2)" fill-rule="evenodd" stroke="none"/>
      <text x="251.9893" y="98.5074" clip-path="url(#clipPath2)" fill="black" font-family="sans-serif" stroke="none" xml:space="preserve">release-project</text>
    </g>
    <g stroke-linecap="butt" transform="matrix(1,0,0,1,15,15)" stroke-miterlimit="1.45">
      <path fill="none" d="M240.8281 93.9722 L251.9531 84.2222 L340.9531 84.2222 L352.0781 93.9722 L340.9531 103.7222 L251.9531 103.7222 Z" fill-rule="evenodd" clip-path="url(#clipPath2)"/>
    </g>
    <g fill="rgb(255,204,0)" transform="matrix(1,0,0,1,15,15)" stroke="rgb(255,204,0)">
      <path d="M240.8281 51.8611 L251.9531 42.1111 L340.9531 42.1111 L352.0781 51.8611 L340.9531 61.6111 L251.9531 61.6111 Z" clip-path="url(#clipPath2)" fill-rule="evenodd" stroke="none"/>
      <text x="264.6689" y="56.3963" clip-path="url(#clipPath2)" fill="black" font-family="sans-serif" stroke="none" xml:space="preserve">clear-error</text>
    </g>
    <g stroke-linecap="butt" transform="matrix(1,0,0,1,15,15)" stroke-miterlimit="1.45">
      <path fill="none" d="M240.8281 51.8611 L251.9531 42.1111 L340.9531 42.1111 L352.0781 51.8611 L340.9531 61.6111 L251.9531 61.6111 Z" fill-rule="evenodd" clip-path="url(#clipPath2)"/>
    </g>
    <g fill="rgb(255,204,0)" transform="matrix(1,0,0,1,15,15)" stroke="rgb(255,204,0)">
      <path d="M240.8281 9.75 L251.9531 0 L340.9531 0 L352.0781 9.75 L340.9531 19.5 L251.9531 19.5 Z" clip-path="url(#clipPath2)" fill-rule="evenodd" stroke="none"/>
      <text x="255.8594" y="14.2852" clip-path="url(#clipPath2)" fill="black" font-family="sans-serif" stroke="none" xml:space="preserve">check-project</text>
    </g>
    <g stroke-linecap="butt" transform="matrix(1,0,0,1,15,15)" stroke-miterlimit="1.45">
      <path fill="none" d="M240.8281 9.75 L251.9531 0 L340.9531 0 L352.0781 9.75 L340.9531 19.5 L251.9531 19.5 Z" fill-rule="evenodd" clip-path="url(#clipPath2)"/>
    </g>
    <g fill="rgb(255,153,204)" transform="matrix(1,0,0,1,15,15)" stroke="rgb(255,153,204)">
      <path d="M1131.261 518.7665 L1141.2922 509.0165 L1221.5422 509.0165 L1231.5735 518.7665 L1221.5422 528.5165 L1141.2922 528.5165 Z" clip-path="url(#clipPath2)" fill-rule="evenodd" stroke="none"/>
      <text x="1170.0676" y="523.3017" clip-path="url(#clipPath2)" fill="black" font-family="sans-serif" stroke="none" xml:space="preserve">info</text>
    </g>
    <g stroke-linecap="butt" transform="matrix(1,0,0,1,15,15)" stroke-miterlimit="1.45">
      <path fill="none" d="M1131.261 518.7665 L1141.2922 509.0165 L1221.5422 509.0165 L1231.5735 518.7665 L1221.5422 528.5165 L1141.2922 528.5165 Z" fill-rule="evenodd" clip-path="url(#clipPath2)"/>
    </g>
    <g fill="rgb(255,153,204)" transform="matrix(1,0,0,1,15,15)" stroke="rgb(255,153,204)">
      <path d="M1131.261 549.0165 L1141.2922 539.2665 L1221.5422 539.2665 L1231.5735 549.0165 L1221.5422 558.7665 L1141.2922 558.7665 Z" clip-path="url(#clipPath2)" fill-rule="evenodd" stroke="none"/>
      <text x="1156.4006" y="553.5517" clip-path="url(#clipPath2)" fill="black" font-family="sans-serif" stroke="none" xml:space="preserve">platform</text>
    </g>
    <g stroke-linecap="butt" transform="matrix(1,0,0,1,15,15)" stroke-miterlimit="1.45">
      <path fill="none" d="M1131.261 549.0165 L1141.2922 539.2665 L1221.5422 539.2665 L1231.5735 549.0165 L1221.5422 558.7665 L1141.2922 558.7665 Z" fill-rule="evenodd" clip-path="url(#clipPath2)"/>
    </g>
    <g fill="rgb(255,153,204)" transform="matrix(1,0,0,1,15,15)" stroke="rgb(255,153,204)">
      <path d="M1131.261 579.2665 L1141.2922 569.5165 L1221.5422 569.5165 L1231.5735 579.2665 L1221.5422 589.0165 L1141.2922 589.0165 Z" clip-path="url(#clipPath2)" fill-rule="evenodd" stroke="none"/>
      <text x="1171.5149" y="583.8017" clip-path="url(#clipPath2)" fill="black" font-family="sans-serif" stroke="none" xml:space="preserve">run</text>
    </g>
    <g stroke-linecap="butt" transform="matrix(1,0,0,1,15,15)" stroke-miterlimit="1.45">
      <path fill="none" d="M1131.261 579.2665 L1141.2922 569.5165 L1221.5422 569.5165 L1231.5735 579.2665 L1221.5422 589.0165 L1141.2922 589.0165 Z" fill-rule="evenodd" clip-path="url(#clipPath2)"/>
    </g>
    <g fill="rgb(255,153,204)" transform="matrix(1,0,0,1,15,15)" stroke="rgb(255,153,204)">
      <path d="M1131.261 609.5165 L1141.2922 599.7665 L1221.5422 599.7665 L1231.5735 609.5165 L1221.5422 619.2665 L1141.2922 619.2665 Z" clip-path="url(#clipPath2)" fill-rule="evenodd" stroke="none"/>
      <text x="1165.2366" y="614.0517" clip-path="url(#clipPath2)" fill="black" font-family="sans-serif" stroke="none" xml:space="preserve">finish</text>
    </g>
    <g stroke-linecap="butt" transform="matrix(1,0,0,1,15,15)" stroke-miterlimit="1.45">
      <path fill="none" d="M1131.261 609.5165 L1141.2922 599.7665 L1221.5422 599.7665 L1231.5735 609.5165 L1221.5422 619.2665 L1141.2922 619.2665 Z" fill-rule="evenodd" clip-path="url(#clipPath2)"/>
    </g>
    <g fill="rgb(255,153,204)" transform="matrix(1,0,0,1,15,15)" stroke="rgb(255,153,204)">
      <path d="M1142.3394 381.9637 L1152.3706 372.2137 L1232.6206 372.2137 L1242.6519 381.9637 L1232.6206 391.7137 L1152.3706 391.7137 Z" clip-path="url(#clipPath2)" fill-rule="evenodd" stroke="none"/>
      <text x="1181.146" y="386.4988" clip-path="url(#clipPath2)" fill="black" font-family="sans-serif" stroke="none" xml:space="preserve">info</text>
    </g>
    <g stroke-linecap="butt" transform="matrix(1,0,0,1,15,15)" stroke-miterlimit="1.45">
      <path fill="none" d="M1142.3394 381.9637 L1152.3706 372.2137 L1232.6206 372.2137 L1242.6519 381.9637 L1232.6206 391.7137 L1152.3706 391.7137 Z" fill-rule="evenodd" clip-path="url(#clipPath2)"/>
    </g>
    <g fill="rgb(255,153,204)" transform="matrix(1,0,0,1,15,15)" stroke="rgb(255,153,204)">
      <path d="M1142.3394 412.2137 L1152.3706 402.4637 L1232.6206 402.4637 L1242.6519 412.2137 L1232.6206 421.9637 L1152.3706 421.9637 Z" clip-path="url(#clipPath2)" fill-rule="evenodd" stroke="none"/>
      <text x="1183.1675" y="416.7488" clip-path="url(#clipPath2)" fill="black" font-family="sans-serif" stroke="none" xml:space="preserve">get</text>
    </g>
    <g stroke-linecap="butt" transform="matrix(1,0,0,1,15,15)" stroke-miterlimit="1.45">
      <path fill="none" d="M1142.3394 412.2137 L1152.3706 402.4637 L1232.6206 402.4637 L1242.6519 412.2137 L1232.6206 421.9637 L1152.3706 421.9637 Z" fill-rule="evenodd" clip-path="url(#clipPath2)"/>
    </g>
    <g fill="rgb(255,204,0)" transform="matrix(1,0,0,1,15,15)" stroke="rgb(255,204,0)">
      <path d="M643.8987 222.2976 L656.4456 212.5476 L756.8206 212.5476 L769.3674 222.2976 L756.8206 232.0476 L656.4456 232.0476 Z" clip-path="url(#clipPath2)" fill-rule="evenodd" stroke="none"/>
      <text x="658.2786" y="226.8327" clip-path="url(#clipPath2)" fill="black" font-family="sans-serif" stroke="none" xml:space="preserve">command-failed</text>
    </g>
    <g stroke-linecap="butt" transform="matrix(1,0,0,1,15,15)" stroke-miterlimit="1.45">
      <path fill="none" d="M643.8987 222.2976 L656.4456 212.5476 L756.8206 212.5476 L769.3674 222.2976 L756.8206 232.0476 L656.4456 232.0476 Z" fill-rule="evenodd" clip-path="url(#clipPath2)"/>
    </g>
    <g fill="rgb(255,204,0)" transform="matrix(1,0,0,1,15,15)" stroke="rgb(255,204,0)">
      <path d="M643.8987 180.1865 L656.9924 170.4365 L761.7424 170.4365 L774.8362 180.1865 L761.7424 189.9365 L656.9924 189.9365 Z" clip-path="url(#clipPath2)" fill-rule="evenodd" stroke="none"/>
      <text x="653.8206" y="184.7216" clip-path="url(#clipPath2)" fill="black" font-family="sans-serif" stroke="none" xml:space="preserve">command-finished</text>
    </g>
    <g stroke-linecap="butt" transform="matrix(1,0,0,1,15,15)" stroke-miterlimit="1.45">
      <path fill="none" d="M643.8987 180.1865 L656.9924 170.4365 L761.7424 170.4365 L774.8362 180.1865 L761.7424 189.9365 L656.9924 189.9365 Z" fill-rule="evenodd" clip-path="url(#clipPath2)"/>
    </g>
    <g fill="rgb(255,204,0)" transform="matrix(1,0,0,1,15,15)" stroke="rgb(255,204,0)">
      <path d="M643.8987 138.0754 L656.9924 128.3254 L761.7424 128.3254 L774.8362 138.0754 L761.7424 147.8254 L656.9924 147.8254 Z" clip-path="url(#clipPath2)" fill-rule="evenodd" stroke="none"/>
      <text x="669.8049" y="142.6105" clip-path="url(#clipPath2)" fill="black" font-family="sans-serif" stroke="none" xml:space="preserve">worker-ready</text>
    </g>
    <g stroke-linecap="butt" transform="matrix(1,0,0,1,15,15)" stroke-miterlimit="1.45">
      <path fill="none" d="M643.8987 138.0754 L656.9924 128.3254 L761.7424 128.3254 L774.8362 138.0754 L761.7424 147.8254 L656.9924 147.8254 Z" fill-rule="evenodd" clip-path="url(#clipPath2)"/>
    </g>
    <g fill="rgb(255,204,0)" transform="matrix(1,0,0,1,15,15)" stroke="rgb(255,204,0)">
      <path d="M1061.6155 220.3056 L1074.7987 210.5556 L1180.2644 210.5556 L1193.4476 220.3056 L1180.2644 230.0556 L1074.7987 230.0556 Z" clip-path="url(#clipPath2)" fill-rule="evenodd" stroke="none"/>
      <text x="1076.2356" y="224.8407" clip-path="url(#clipPath2)" fill="black" font-family="sans-serif" stroke="none" xml:space="preserve">worker-heartbeat</text>
    </g>
    <g stroke-linecap="butt" transform="matrix(1,0,0,1,15,15)" stroke-miterlimit="1.45">
      <path fill="none" d="M1061.6155 220.3056 L1074.7987 210.5556 L1180.2644 210.5556 L1193.4476 220.3056 L1180.2644 230.0556 L1074.7987 230.0556 Z" fill-rule="evenodd" clip-path="url(#clipPath2)"/>
    </g>
    <g fill="rgb(255,204,0)" transform="matrix(1,0,0,1,15,15)" stroke="rgb(255,204,0)">
      <path d="M1061.6155 178.1944 L1075.3456 168.4444 L1185.1863 168.4444 L1198.9164 178.1944 L1185.1863 187.9444 L1075.3456 187.9444 Z" clip-path="url(#clipPath2)" fill-rule="evenodd" stroke="none"/>
      <text x="1074.719" y="182.7296" clip-path="url(#clipPath2)" fill="black" font-family="sans-serif" stroke="none" xml:space="preserve">command-finished</text>
    </g>
    <g stroke-linecap="butt" transform="matrix(1,0,0,1,15,15)" stroke-miterlimit="1.45">
      <path fill="none" d="M1061.6155 178.1944 L1075.3456 168.4444 L1185.1863 168.4444 L1198.9164 178.1944 L1185.1863 187.9444 L1075.3456 187.9444 Z" fill-rule="evenodd" clip-path="url(#clipPath2)"/>
    </g>
    <g fill="rgb(255,204,0)" transform="matrix(1,0,0,1,15,15)" stroke="rgb(255,204,0)">
      <path d="M1061.6155 136.0833 L1075.3456 126.3333 L1185.1863 126.3333 L1198.9164 136.0833 L1185.1863 145.8333 L1075.3456 145.8333 Z" clip-path="url(#clipPath2)" fill-rule="evenodd" stroke="none"/>
      <text x="1090.7034" y="140.6185" clip-path="url(#clipPath2)" fill="black" font-family="sans-serif" stroke="none" xml:space="preserve">worker-ready</text>
    </g>
    <g stroke-linecap="butt" transform="matrix(1,0,0,1,15,15)" stroke-miterlimit="1.45">
      <path fill="none" d="M1061.6155 136.0833 L1075.3456 126.3333 L1185.1863 126.3333 L1198.9164 136.0833 L1185.1863 145.8333 L1075.3456 145.8333 Z" fill-rule="evenodd" clip-path="url(#clipPath2)"/>
    </g>
    <g fill="rgb(204,204,255)" transform="matrix(1,0,0,1,15,15)" stroke="rgb(204,204,255)">
      <rect x="763.5876" width="120" height="80" y="403.0542" clip-path="url(#clipPath2)" stroke="none"/>
      <text x="781.4148" y="440.5229" clip-path="url(#clipPath2)" fill="black" font-family="sans-serif" stroke="none" xml:space="preserve">Project plugin </text>
      <text x="791.5515" y="454.6558" clip-path="url(#clipPath2)" fill="black" font-family="sans-serif" stroke="none" xml:space="preserve">(controller)</text>
    </g>
    <g stroke-linecap="butt" transform="matrix(1,0,0,1,15,15)" stroke-miterlimit="1.45">
      <rect fill="none" x="763.5876" width="120" height="80" y="403.0542" clip-path="url(#clipPath2)"/>
    </g>
    <g fill="rgb(204,204,255)" transform="matrix(1,0,0,1,15,15)" stroke="rgb(204,204,255)">
      <rect x="738.2987" width="120" height="80" y="599.7665" clip-path="url(#clipPath2)" stroke="none"/>
      <text x="764.2938" y="644.3017" clip-path="url(#clipPath2)" fill="black" font-family="sans-serif" stroke="none" xml:space="preserve">Task plugin</text>
    </g>
    <g stroke-linecap="butt" transform="matrix(1,0,0,1,15,15)" stroke-miterlimit="1.45">
      <rect fill="none" x="738.2987" width="120" height="80" y="599.7665" clip-path="url(#clipPath2)"/>
    </g>
    <g fill="rgb(255,102,102)" transform="matrix(1,0,0,1,15,15)" stroke="rgb(255,102,102)">
      <rect x="415.9062" y="126.3333" clip-path="url(#clipPath2)" width="177" rx="4" ry="4" height="148" stroke="none"/>
      <text x="486.4736" y="197.8021" clip-path="url(#clipPath2)" fill="black" font-family="sans-serif" stroke="none" xml:space="preserve">Server</text>
      <text x="465.8779" y="211.9349" clip-path="url(#clipPath2)" fill="black" font-family="sans-serif" stroke="none" xml:space="preserve">(with project)</text>
    </g>
    <g stroke-linecap="butt" transform="matrix(1,0,0,1,15,15)" stroke-miterlimit="1.45">
      <rect x="415.9062" y="126.3333" clip-path="url(#clipPath2)" fill="none" width="177" rx="4" ry="4" height="148"/>
    </g>
    <g fill="rgb(255,153,204)" transform="matrix(1,0,0,1,15,15)" stroke="rgb(255,153,204)">
      <path d="M633.2751 388.75 L643.3064 379 L723.5564 379 L733.5876 388.75 L723.5564 398.5 L643.3064 398.5 Z" clip-path="url(#clipPath2)" fill-rule="evenodd" stroke="none"/>
      <text x="672.0818" y="393.2852" clip-path="url(#clipPath2)" fill="black" font-family="sans-serif" stroke="none" xml:space="preserve">info</text>
    </g>
    <g stroke-linecap="butt" transform="matrix(1,0,0,1,15,15)" stroke-miterlimit="1.45">
      <path fill="none" d="M633.2751 388.75 L643.3064 379 L723.5564 379 L733.5876 388.75 L723.5564 398.5 L643.3064 398.5 Z" fill-rule="evenodd" clip-path="url(#clipPath2)"/>
    </g>
    <g fill="rgb(255,153,204)" transform="matrix(1,0,0,1,15,15)" stroke="rgb(255,153,204)">
      <path d="M633.2751 424.9528 L643.3064 415.2028 L723.5564 415.2028 L733.5876 424.9528 L723.5564 434.7028 L643.3064 434.7028 Z" clip-path="url(#clipPath2)" fill-rule="evenodd" stroke="none"/>
      <text x="673.5291" y="429.4879" clip-path="url(#clipPath2)" fill="black" font-family="sans-serif" stroke="none" xml:space="preserve">run</text>
    </g>
    <g stroke-linecap="butt" transform="matrix(1,0,0,1,15,15)" stroke-miterlimit="1.45">
      <path fill="none" d="M633.2751 424.9528 L643.3064 415.2028 L723.5564 415.2028 L733.5876 424.9528 L723.5564 434.7028 L643.3064 434.7028 Z" fill-rule="evenodd" clip-path="url(#clipPath2)"/>
    </g>
    <g fill="rgb(255,153,204)" transform="matrix(1,0,0,1,15,15)" stroke="rgb(255,153,204)">
      <path d="M633.2751 461.1556 L643.3064 451.4056 L723.5564 451.4056 L733.5876 461.1556 L723.5564 470.9056 L643.3064 470.9056 Z" clip-path="url(#clipPath2)" fill-rule="evenodd" stroke="none"/>
      <text x="640.5291" y="465.6908" clip-path="url(#clipPath2)" fill="black" font-family="sans-serif" stroke="none" xml:space="preserve">batch-finished</text>
    </g>
    <g stroke-linecap="butt" transform="matrix(1,0,0,1,15,15)" stroke-miterlimit="1.45">
      <path fill="none" d="M633.2751 461.1556 L643.3064 451.4056 L723.5564 451.4056 L733.5876 461.1556 L723.5564 470.9056 L643.3064 470.9056 Z" fill-rule="evenodd" clip-path="url(#clipPath2)"/>
    </g>
    <g fill="rgb(255,153,204)" transform="matrix(1,0,0,1,15,15)" stroke="rgb(255,153,204)">
      <path d="M633.2751 497.3584 L643.3064 487.6084 L723.5564 487.6084 L733.5876 497.3584 L723.5564 507.1084 L643.3064 507.1084 Z" clip-path="url(#clipPath2)" fill-rule="evenodd" stroke="none"/>
      <text x="663.2546" y="501.8936" clip-path="url(#clipPath2)" fill="black" font-family="sans-serif" stroke="none" xml:space="preserve">update</text>
    </g>
    <g stroke-linecap="butt" transform="matrix(1,0,0,1,15,15)" stroke-miterlimit="1.45">
      <path fill="none" d="M633.2751 497.3584 L643.3064 487.6084 L723.5564 487.6084 L733.5876 497.3584 L723.5564 507.1084 L643.3064 507.1084 Z" fill-rule="evenodd" clip-path="url(#clipPath2)"/>
    </g>
    <g fill="rgb(255,153,204)" transform="matrix(1,0,0,1,15,15)" stroke="rgb(255,153,204)">
      <path d="M607.9862 617.7158 L618.0175 607.9658 L698.2675 607.9658 L708.2987 617.7158 L698.2675 627.4658 L618.0175 627.4658 Z" clip-path="url(#clipPath2)" fill-rule="evenodd" stroke="none"/>
      <text x="646.7928" y="622.251" clip-path="url(#clipPath2)" fill="black" font-family="sans-serif" stroke="none" xml:space="preserve">info</text>
    </g>
    <g stroke-linecap="butt" transform="matrix(1,0,0,1,15,15)" stroke-miterlimit="1.45">
      <path fill="none" d="M607.9862 617.7158 L618.0175 607.9658 L698.2675 607.9658 L708.2987 617.7158 L698.2675 627.4658 L618.0175 627.4658 Z" fill-rule="evenodd" clip-path="url(#clipPath2)"/>
    </g>
    <g fill="rgb(255,153,204)" transform="matrix(1,0,0,1,15,15)" stroke="rgb(255,153,204)">
      <path d="M607.9862 654.6393 L618.0175 644.8893 L698.2675 644.8893 L708.2987 654.6393 L698.2675 664.3893 L618.0175 664.3893 Z" clip-path="url(#clipPath2)" fill-rule="evenodd" stroke="none"/>
      <text x="635.6923" y="659.1744" clip-path="url(#clipPath2)" fill="black" font-family="sans-serif" stroke="none" xml:space="preserve">process</text>
    </g>
    <g stroke-linecap="butt" transform="matrix(1,0,0,1,15,15)" stroke-miterlimit="1.45">
      <path fill="none" d="M607.9862 654.6393 L618.0175 644.8893 L698.2675 644.8893 L708.2987 654.6393 L698.2675 664.3893 L618.0175 664.3893 Z" fill-rule="evenodd" clip-path="url(#clipPath2)"/>
      <path fill="none" d="M88.5 286.4735 L88.5 346.6389 L259.3906 346.6389" clip-path="url(#clipPath2)"/>
      <path d="M267.3906 346.6389 L255.3906 341.6389 L258.3906 346.6389 L255.3906 351.6389 Z" clip-path="url(#clipPath2)" stroke="none"/>
      <path fill="none" d="M92.5 286.4735 L92.5 304.5278 L244.5469 304.5278" clip-path="url(#clipPath2)"/>
      <path d="M252.5469 304.5278 L240.5469 299.5278 L243.5469 304.5278 L240.5469 309.5278 Z" clip-path="url(#clipPath2)" stroke="none"/>
      <path fill="none" d="M84.5 286.4735 L84.5 388.75 L259.346 388.75" clip-path="url(#clipPath2)"/>
      <path d="M267.346 388.75 L255.346 383.75 L258.346 388.75 L255.346 393.75 Z" clip-path="url(#clipPath2)" stroke="none"/>
      <path fill="none" d="M177 262.4167 L244.5469 262.4167" clip-path="url(#clipPath2)"/>
      <path d="M252.5469 262.4167 L240.5469 257.4167 L243.5469 262.4167 L240.5469 267.4167 Z" clip-path="url(#clipPath2)" stroke="none"/>
      <path fill="none" d="M177 220.3056 L238.2969 220.3056" clip-path="url(#clipPath2)"/>
      <path d="M246.2969 220.3056 L234.2969 215.3056 L237.2969 220.3056 L234.2969 225.3056 Z" clip-path="url(#clipPath2)" stroke="none"/>
      <path fill="none" d="M177 178.1944 L232.8281 178.1944" clip-path="url(#clipPath2)"/>
      <path d="M240.8281 178.1944 L228.8281 173.1944 L231.8281 178.1944 L228.8281 183.1944 Z" clip-path="url(#clipPath2)" stroke="none"/>
      <path fill="none" d="M176.7812 136.0833 L232.8281 136.0833" clip-path="url(#clipPath2)"/>
      <path d="M240.8281 136.0833 L228.8281 131.0833 L231.8281 136.0833 L228.8281 141.0833 Z" clip-path="url(#clipPath2)" stroke="none"/>
      <path fill="none" d="M92.5 133.4349 L92.5 93.9722 L232.8281 93.9722" clip-path="url(#clipPath2)"/>
      <path d="M240.8281 93.9722 L228.8281 88.9722 L231.8281 93.9722 L228.8281 98.9722 Z" clip-path="url(#clipPath2)" stroke="none"/>
      <path fill="none" d="M88.5 133.4337 L88.5 51.8611 L232.8281 51.8611" clip-path="url(#clipPath2)"/>
      <path d="M240.8281 51.8611 L228.8281 46.8611 L231.8281 51.8611 L228.8281 56.8611 Z" clip-path="url(#clipPath2)" stroke="none"/>
      <path fill="none" d="M84.5 133.4433 L84.5 9.75 L232.79 9.75" clip-path="url(#clipPath2)"/>
      <path d="M240.79 9.75 L228.79 4.75 L231.79 9.75 L228.79 14.75 Z" clip-path="url(#clipPath2)" stroke="none"/>
      <path fill="none" d="M1336.5402 279.3333 L1336.5402 518.7665 L1246.5735 518.7665" clip-path="url(#clipPath2)"/>
      <path fill="white" d="M1231.5735 518.7665 L1247.5735 524.7665 L1247.5735 512.7665 Z" clip-path="url(#clipPath2)" stroke="none"/>
      <path fill="none" d="M1231.5735 518.7665 L1247.5735 524.7665 L1247.5735 512.7665 Z" clip-path="url(#clipPath2)"/>
      <path fill="none" d="M1131.261 518.7665 L1116.261 518.7665" clip-path="url(#clipPath2)"/>
      <path fill="white" d="M1101.261 518.7665 L1117.261 524.7665 L1117.261 512.7665 Z" clip-path="url(#clipPath2)" stroke="none"/>
      <path fill="none" d="M1101.261 518.7665 L1117.261 524.7665 L1117.261 512.7665 Z" clip-path="url(#clipPath2)"/>
      <path fill="none" d="M1340.5402 279.3333 L1340.5402 549.0165 L1246.5735 549.0165" clip-path="url(#clipPath2)"/>
      <path fill="white" d="M1231.5735 549.0165 L1247.5735 555.0165 L1247.5735 543.0165 Z" clip-path="url(#clipPath2)" stroke="none"/>
      <path fill="none" d="M1231.5735 549.0165 L1247.5735 555.0165 L1247.5735 543.0165 Z" clip-path="url(#clipPath2)"/>
      <path fill="none" d="M1131.261 549.0165 L1116.261 549.0165" clip-path="url(#clipPath2)"/>
      <path fill="white" d="M1101.261 549.0165 L1117.261 555.0165 L1117.261 543.0165 Z" clip-path="url(#clipPath2)" stroke="none"/>
      <path fill="none" d="M1101.261 549.0165 L1117.261 555.0165 L1117.261 543.0165 Z" clip-path="url(#clipPath2)"/>
      <path fill="none" d="M1344.5402 279.3333 L1344.5402 579.2665 L1246.5735 579.2665" clip-path="url(#clipPath2)"/>
      <path fill="white" d="M1231.5735 579.2665 L1247.5735 585.2665 L1247.5735 573.2665 Z" clip-path="url(#clipPath2)" stroke="none"/>
      <path fill="none" d="M1231.5735 579.2665 L1247.5735 585.2665 L1247.5735 573.2665 Z" clip-path="url(#clipPath2)"/>
      <path fill="none" d="M1131.261 579.2665 L1116.261 579.2665" clip-path="url(#clipPath2)"/>
      <path fill="white" d="M1101.261 579.2665 L1117.261 585.2665 L1117.261 573.2665 Z" clip-path="url(#clipPath2)" stroke="none"/>
      <path fill="none" d="M1101.261 579.2665 L1117.261 585.2665 L1117.261 573.2665 Z" clip-path="url(#clipPath2)"/>
      <path fill="none" d="M1348.5402 279.3333 L1348.5402 609.5165 L1246.5735 609.5165" clip-path="url(#clipPath2)"/>
      <path fill="white" d="M1231.5735 609.5165 L1247.5735 615.5165 L1247.5735 603.5165 Z" clip-path="url(#clipPath2)" stroke="none"/>
      <path fill="none" d="M1231.5735 609.5165 L1247.5735 615.5165 L1247.5735 603.5165 Z" clip-path="url(#clipPath2)"/>
      <path fill="none" d="M1131.261 609.5165 L1041.261 609.5165 L1041.261 604.0165" clip-path="url(#clipPath2)"/>
      <path fill="white" d="M1041.261 589.0165 L1035.261 605.0165 L1047.261 605.0165 Z" clip-path="url(#clipPath2)" stroke="none"/>
      <path fill="none" d="M1041.261 589.0165 L1035.261 605.0165 L1047.261 605.0165 Z" clip-path="url(#clipPath2)"/>
      <path fill="none" d="M1328.5402 279.3333 L1328.5402 381.9637 L1257.6937 381.9637" clip-path="url(#clipPath2)"/>
      <path fill="white" d="M1242.6937 381.9637 L1258.6937 387.9637 L1258.6937 375.9637 Z" clip-path="url(#clipPath2)" stroke="none"/>
      <path fill="none" d="M1242.6937 381.9637 L1258.6937 387.9637 L1258.6937 375.9637 Z" clip-path="url(#clipPath2)"/>
      <path fill="none" d="M1142.3394 381.9637 L1127.3394 381.9637" clip-path="url(#clipPath2)"/>
      <path fill="white" d="M1112.3394 381.9637 L1128.3394 387.9637 L1128.3394 375.9637 Z" clip-path="url(#clipPath2)" stroke="none"/>
      <path fill="none" d="M1112.3394 381.9637 L1128.3394 387.9637 L1128.3394 375.9637 Z" clip-path="url(#clipPath2)"/>
      <path fill="none" d="M1332.5402 279.3333 L1332.5402 412.2137 L1257.6957 412.2137" clip-path="url(#clipPath2)"/>
      <path fill="white" d="M1242.6957 412.2137 L1258.6957 418.2137 L1258.6957 406.2137 Z" clip-path="url(#clipPath2)" stroke="none"/>
      <path fill="none" d="M1242.6957 412.2137 L1258.6957 418.2137 L1258.6957 406.2137 Z" clip-path="url(#clipPath2)"/>
      <path fill="none" d="M1142.3394 412.2137 L1127.3394 412.2137" clip-path="url(#clipPath2)"/>
      <path fill="white" d="M1112.3394 412.2137 L1128.3394 418.2137 L1128.3394 406.2137 Z" clip-path="url(#clipPath2)" stroke="none"/>
      <path fill="none" d="M1112.3394 412.2137 L1128.3394 418.2137 L1128.3394 406.2137 Z" clip-path="url(#clipPath2)"/>
      <path fill="none" d="M840.7748 222.2976 L777.4023 222.2976" clip-path="url(#clipPath2)"/>
      <path d="M769.4023 222.2976 L781.4023 227.2976 L778.4023 222.2976 L781.4023 217.2976 Z" clip-path="url(#clipPath2)" stroke="none"/>
      <path fill="none" d="M840.7775 180.1865 L782.8683 180.1865" clip-path="url(#clipPath2)"/>
      <path d="M774.8683 180.1865 L786.8683 185.1865 L783.8683 180.1865 L786.8683 175.1865 Z" clip-path="url(#clipPath2)" stroke="none"/>
      <path fill="none" d="M840.7775 138.0754 L782.8362 138.0754" clip-path="url(#clipPath2)"/>
      <path d="M774.8362 138.0754 L786.8362 143.0754 L783.8362 138.0754 L786.8362 133.0754 Z" clip-path="url(#clipPath2)" stroke="none"/>
      <path fill="none" d="M1254.5104 220.3056 L1201.4774 220.3056" clip-path="url(#clipPath2)"/>
      <path d="M1193.4774 220.3056 L1205.4774 225.3056 L1202.4774 220.3056 L1205.4774 215.3056 Z" clip-path="url(#clipPath2)" stroke="none"/>
      <path fill="none" d="M1061.6155 220.3056 L1003.6419 220.3056" clip-path="url(#clipPath2)"/>
      <path d="M995.6419 220.3056 L1007.6419 225.3056 L1004.6419 220.3056 L1007.6419 215.3056 Z" clip-path="url(#clipPath2)" stroke="none"/>
      <path fill="none" d="M1254.5131 178.1944 L1206.9435 178.1944" clip-path="url(#clipPath2)"/>
      <path d="M1198.9435 178.1944 L1210.9435 183.1944 L1207.9435 178.1944 L1210.9435 173.1944 Z" clip-path="url(#clipPath2)" stroke="none"/>
      <path fill="none" d="M1061.6155 178.1944 L1003.6419 178.1944" clip-path="url(#clipPath2)"/>
      <path d="M995.6419 178.1944 L1007.6419 183.1944 L1004.6419 178.1944 L1007.6419 173.1944 Z" clip-path="url(#clipPath2)" stroke="none"/>
      <path fill="none" d="M1254.5131 136.0833 L1206.9164 136.0833" clip-path="url(#clipPath2)"/>
      <path d="M1198.9164 136.0833 L1210.9164 141.0833 L1207.9164 136.0833 L1210.9164 131.0833 Z" clip-path="url(#clipPath2)" stroke="none"/>
      <path fill="none" d="M1061.6155 136.0833 L1003.6419 136.0833" clip-path="url(#clipPath2)"/>
      <path d="M995.6419 136.0833 L1007.6419 141.0833 L1004.6419 136.0833 L1007.6419 131.0833 Z" clip-path="url(#clipPath2)" stroke="none"/>
      <path fill="none" d="M325.5156 346.6389 L492.4062 346.6389 L492.4062 282.3333" clip-path="url(#clipPath2)"/>
      <path d="M492.4062 274.3333 L487.4062 286.3333 L492.4062 283.3333 L497.4062 286.3333 Z" clip-path="url(#clipPath2)" stroke="none"/>
      <path fill="none" d="M325.5156 388.75 L496.4062 388.75 L496.4062 282.3333" clip-path="url(#clipPath2)"/>
      <path d="M496.4062 274.3333 L491.4062 286.3333 L496.4062 283.3333 L501.4062 286.3333 Z" clip-path="url(#clipPath2)" stroke="none"/>
      <path fill="none" d="M352.0781 9.75 L508.4062 9.75 L508.4062 118.3049" clip-path="url(#clipPath2)"/>
      <path d="M508.4062 126.3049 L513.4062 114.3049 L508.4062 117.3049 L503.4062 114.3049 Z" clip-path="url(#clipPath2)" stroke="none"/>
      <path fill="none" d="M352.0781 51.8611 L504.4062 51.8611 L504.4062 118.297" clip-path="url(#clipPath2)"/>
      <path d="M504.4062 126.297 L509.4062 114.297 L504.4062 117.297 L499.4062 114.297 Z" clip-path="url(#clipPath2)" stroke="none"/>
      <path fill="none" d="M352.0781 93.9722 L500.4062 93.9722 L500.4062 118.3017" clip-path="url(#clipPath2)"/>
      <path d="M500.4062 126.3017 L505.4062 114.3017 L500.4062 117.3017 L495.4062 114.3017 Z" clip-path="url(#clipPath2)" stroke="none"/>
      <path fill="none" d="M352.0781 136.0833 L407.8751 136.0833" clip-path="url(#clipPath2)"/>
      <path d="M415.8751 136.0833 L403.8751 131.0833 L406.8751 136.0833 L403.8751 141.0833 Z" clip-path="url(#clipPath2)" stroke="none"/>
      <path fill="none" d="M352.0781 178.1944 L407.8751 178.1944" clip-path="url(#clipPath2)"/>
      <path d="M415.8751 178.1944 L403.8751 173.1944 L406.8751 178.1944 L403.8751 183.1944 Z" clip-path="url(#clipPath2)" stroke="none"/>
      <path fill="none" d="M346.6094 220.3056 L407.8724 220.3056" clip-path="url(#clipPath2)"/>
      <path d="M415.8724 220.3056 L403.8724 215.3056 L406.8724 220.3056 L403.8724 225.3056 Z" clip-path="url(#clipPath2)" stroke="none"/>
      <path fill="none" d="M340.3594 262.4167 L407.8694 262.4167" clip-path="url(#clipPath2)"/>
      <path d="M415.8694 262.4167 L403.8694 257.4167 L406.8694 262.4167 L403.8694 267.4167 Z" clip-path="url(#clipPath2)" stroke="none"/>
      <path fill="none" d="M340.3594 304.5278 L488.4062 304.5278 L488.4062 282.3333" clip-path="url(#clipPath2)"/>
      <path d="M488.4062 274.3333 L483.4062 286.3333 L488.4062 283.3333 L493.4062 286.3333 Z" clip-path="url(#clipPath2)" stroke="none"/>
      <path fill="none" d="M643.8987 222.2976 L600.9062 222.2976" clip-path="url(#clipPath2)"/>
      <path d="M592.9062 222.2976 L604.9062 227.2976 L601.9062 222.2976 L604.9062 217.2976 Z" clip-path="url(#clipPath2)" stroke="none"/>
      <path fill="none" d="M643.8987 180.1865 L600.9062 180.1865" clip-path="url(#clipPath2)"/>
      <path d="M592.9062 180.1865 L604.9062 185.1865 L601.9062 180.1865 L604.9062 175.1865 Z" clip-path="url(#clipPath2)" stroke="none"/>
      <path fill="none" d="M643.8987 138.0754 L600.9062 138.0754" clip-path="url(#clipPath2)"/>
      <path d="M592.9062 138.0754 L604.9062 143.0754 L601.9062 138.0754 L604.9062 133.0754 Z" clip-path="url(#clipPath2)" stroke="none"/>
      <path fill="none" d="M520.4062 274.3333 L520.4062 388.75 L618.2751 388.75" clip-path="url(#clipPath2)"/>
      <path fill="white" d="M633.2751 388.75 L617.2751 382.75 L617.2751 394.75 Z" clip-path="url(#clipPath2)" stroke="none"/>
      <path fill="none" d="M633.2751 388.75 L617.2751 382.75 L617.2751 394.75 Z" clip-path="url(#clipPath2)"/>
      <path fill="none" d="M733.6316 388.75 L823.5876 388.75 L823.5876 403.0262" clip-path="url(#clipPath2)"/>
      <path fill="white" d="M823.5876 403.0262 L829.5876 387.0262 L817.5876 387.0262 Z" clip-path="url(#clipPath2)" stroke="none"/>
      <path fill="none" d="M823.5876 403.0262 L829.5876 387.0262 L817.5876 387.0262 Z" clip-path="url(#clipPath2)"/>
      <path fill="none" d="M516.4062 274.3333 L516.4062 424.9528 L618.2751 424.9528" clip-path="url(#clipPath2)"/>
      <path fill="white" d="M633.2751 424.9528 L617.2751 418.9528 L617.2751 430.9528 Z" clip-path="url(#clipPath2)" stroke="none"/>
      <path fill="none" d="M633.2751 424.9528 L617.2751 418.9528 L617.2751 430.9528 Z" clip-path="url(#clipPath2)"/>
      <path fill="none" d="M733.6169 424.9528 L748.5583 424.9528" clip-path="url(#clipPath2)"/>
      <path fill="white" d="M763.5583 424.9528 L747.5583 418.9528 L747.5583 430.9528 Z" clip-path="url(#clipPath2)" stroke="none"/>
      <path fill="none" d="M763.5583 424.9528 L747.5583 418.9528 L747.5583 430.9528 Z" clip-path="url(#clipPath2)"/>
      <path fill="none" d="M512.4062 274.3333 L512.4062 461.1556 L618.2751 461.1556" clip-path="url(#clipPath2)"/>
      <path fill="white" d="M633.2751 461.1556 L617.2751 455.1556 L617.2751 467.1556 Z" clip-path="url(#clipPath2)" stroke="none"/>
      <path fill="none" d="M633.2751 461.1556 L617.2751 455.1556 L617.2751 467.1556 Z" clip-path="url(#clipPath2)"/>
      <path fill="none" d="M733.6169 461.1556 L748.5583 461.1556" clip-path="url(#clipPath2)"/>
      <path fill="white" d="M763.5583 461.1556 L747.5583 455.1556 L747.5583 467.1556 Z" clip-path="url(#clipPath2)" stroke="none"/>
      <path fill="none" d="M763.5583 461.1556 L747.5583 455.1556 L747.5583 467.1556 Z" clip-path="url(#clipPath2)"/>
      <path fill="none" d="M508.4062 274.3333 L508.4062 497.3584 L618.2751 497.3584" clip-path="url(#clipPath2)"/>
      <path fill="white" d="M633.2751 497.3584 L617.2751 491.3584 L617.2751 503.3584 Z" clip-path="url(#clipPath2)" stroke="none"/>
      <path fill="none" d="M633.2751 497.3584 L617.2751 491.3584 L617.2751 503.3584 Z" clip-path="url(#clipPath2)"/>
      <path fill="none" d="M733.6316 497.3584 L823.5876 497.3584 L823.5876 483.0542" clip-path="url(#clipPath2)"/>
      <path fill="white" d="M823.5876 483.0542 L817.5876 499.0542 L829.5876 499.0542 Z" clip-path="url(#clipPath2)" stroke="none"/>
      <path fill="none" d="M823.5876 483.0542 L817.5876 499.0542 L829.5876 499.0542 Z" clip-path="url(#clipPath2)"/>
      <path fill="none" d="M504.4062 274.3333 L504.4062 617.7158 L592.9609 617.7158" clip-path="url(#clipPath2)"/>
      <path fill="white" d="M607.9609 617.7158 L591.9609 611.7158 L591.9609 623.7158 Z" clip-path="url(#clipPath2)" stroke="none"/>
      <path fill="none" d="M607.9609 617.7158 L591.9609 611.7158 L591.9609 623.7158 Z" clip-path="url(#clipPath2)"/>
      <path fill="none" d="M708.2987 617.7158 L723.2694 617.7158" clip-path="url(#clipPath2)"/>
      <path fill="white" d="M738.2694 617.7158 L722.2694 611.7158 L722.2694 623.7158 Z" clip-path="url(#clipPath2)" stroke="none"/>
      <path fill="none" d="M738.2694 617.7158 L722.2694 611.7158 L722.2694 623.7158 Z" clip-path="url(#clipPath2)"/>
      <path fill="none" d="M500.4062 274.3333 L500.4062 654.6393 L592.96 654.6393" clip-path="url(#clipPath2)"/>
      <path fill="white" d="M607.96 654.6393 L591.96 648.6393 L591.96 660.6393 Z" clip-path="url(#clipPath2)" stroke="none"/>
      <path fill="none" d="M607.96 654.6393 L591.96 648.6393 L591.96 660.6393 Z" clip-path="url(#clipPath2)"/>
      <path fill="none" d="M708.2987 654.6393 L723.2694 654.6393" clip-path="url(#clipPath2)"/>
      <path fill="white" d="M738.2694 654.6393 L722.2694 648.6393 L722.2694 660.6393 Z" clip-path="url(#clipPath2)" stroke="none"/>
      <path fill="none" d="M738.2694 654.6393 L722.2694 648.6393 L722.2694 660.6393 Z" clip-path="url(#clipPath2)"/>
    </g>
  </g>
</svg>
